<?xml version="1.0" encoding="UTF-8" standalone="no"?>
<!-- Created with Inkscape (http://www.inkscape.org/) -->

<svg
   xmlns:dc="http://purl.org/dc/elements/1.1/"
   xmlns:cc="http://creativecommons.org/ns#"
   xmlns:rdf="http://www.w3.org/1999/02/22-rdf-syntax-ns#"
   xmlns:svg="http://www.w3.org/2000/svg"
   xmlns="http://www.w3.org/2000/svg"
   xmlns:sodipodi="http://sodipodi.sourceforge.net/DTD/sodipodi-0.dtd"
   xmlns:inkscape="http://www.inkscape.org/namespaces/inkscape"
   width="3.2448132"
   height="3.4199858"
   id="svg3004"
   version="1.1"
   inkscape:version="0.48.2 r9819"
   sodipodi:docname="data_inport.svg">
  <defs
     id="defs3006" />
  <sodipodi:namedview
     id="base"
     pagecolor="#ffffff"
     bordercolor="#666666"
     borderopacity="1.0"
     inkscape:pageopacity="0.0"
     inkscape:pageshadow="2"
     inkscape:zoom="44.8"
     inkscape:cx="12.825491"
     inkscape:cy="2.1180971"
     inkscape:document-units="px"
     inkscape:current-layer="layer1"
     showgrid="false"
     fit-margin-top="0"
     fit-margin-left="0"
     fit-margin-right="0"
     fit-margin-bottom="0"
     inkscape:window-width="1920"
     inkscape:window-height="1021"
     inkscape:window-x="0"
     inkscape:window-y="27"
     inkscape:window-maximized="1" />
  <metadata
     id="metadata3009">
    <rdf:RDF>
      <cc:Work
         rdf:about="">
        <dc:format>image/svg+xml</dc:format>
        <dc:type
           rdf:resource="http://purl.org/dc/dcmitype/StillImage" />
        <dc:title></dc:title>
      </cc:Work>
    </rdf:RDF>
  </metadata>
  <g
     inkscape:label="Layer 1"
     inkscape:groupmode="layer"
     id="layer1"
     transform="translate(-294.61937,-501.68919)">
    <path
       style="fill:#f9f9f9;fill-opacity:0;stroke:#000000;stroke-width:0.0234763;stroke-miterlimit:10.80000019;stroke-opacity:1;stroke-dasharray:none;stroke-dashoffset:0"
       d=""
       id="path3902"
       inkscape:connector-curvature="0"
       transform="translate(294.81154,501.63801)" />
    <path
       style="fill:#f9f9f9;fill-opacity:0;stroke:#000000;stroke-width:0.0234763;stroke-miterlimit:10.80000019;stroke-opacity:1;stroke-dasharray:none;stroke-dashoffset:0"
       d=""
       id="path3904"
       inkscape:connector-curvature="0"
       transform="translate(294.81154,501.63801)" />
    <g
       id="g3914"
       transform="matrix(0.11473726,0,0,0.11752817,260.85449,442.73633)">
      <g
         transform="matrix(0,1,-1,0,824.81658,207.49515)"
         id="g3845">
        <path
           style="fill:none;stroke:#000000;stroke-width:1px;stroke-linecap:butt;stroke-linejoin:miter;stroke-opacity:1"
           d="m 294.64286,529.50504 28.03571,0"
           id="path3012"
           inkscape:connector-curvature="0" />
        <path
           style="fill:none;stroke:#000000;stroke-width:1px;stroke-linecap:butt;stroke-linejoin:miter;stroke-opacity:1"
           d="M 322.21813,529.25394 308.20028,504.9743"
           id="path3012-5"
           inkscape:connector-curvature="0" />
        <path
           style="fill:none;stroke:#000000;stroke-width:1px;stroke-linecap:butt;stroke-linejoin:miter;stroke-opacity:1"
           d="m 295.11096,529.28329 14.01785,-24.27964"
           id="path3012-57"
           inkscape:connector-curvature="0" />
        <path
           style="fill:none;stroke:#ffffff;stroke-width:0.98843741px;stroke-linecap:butt;stroke-linejoin:miter;stroke-opacity:1"
           d="m 307.60583,505.6288 1.63269,-2.8279"
           id="path3841"
           inkscape:connector-curvature="0" />
        <path
           style="fill:none;stroke:#ffffff;stroke-width:1px;stroke-linecap:butt;stroke-linejoin:miter;stroke-opacity:1"
           d="m 308.52678,503.55964 1.60715,2.78366"
           id="path3843"
           inkscape:connector-curvature="0" />
      </g>
      <path
         transform="translate(294.81154,501.63801)"
         inkscape:connector-curvature="0"
         id="path3852"
         d="m 1.0846358,14.586714 c 0,-6.9338088 0.040408,-12.6069247 0.089796,-12.6069247 0.1477202,0 21.2299152,12.1757457 21.4807632,12.4059337 0.182903,0.167839 -1.927218,1.457811 -10.089286,6.167845 -5.6763077,3.275593 -10.5817199,6.109623 -10.9009163,6.297846 l -0.5803572,0.342224 0,-12.606924 z"
         style="fill:#f9f9f9;fill-opacity:0;stroke:#000000;stroke-width:0.53120804;stroke-miterlimit:10.80000019;stroke-opacity:1;stroke-dasharray:none;stroke-dashoffset:0" />
      <path
         transform="translate(294.81154,501.63801)"
         inkscape:connector-curvature="0"
         id="path3854"
         d="m 1.4417787,14.54997 c 0,-10.4251006 0.032625,-11.8815858 0.2641557,-11.7927392 0.266858,0.102403 10.7513426,6.1073243 16.9194336,9.6904972 1.839368,1.068527 3.345745,1.982954 3.347504,2.032061 0.0057,0.15896 -20.1574207,11.964286 -20.4346154,11.964286 -0.053063,0 -0.096478,-5.352346 -0.096478,-11.894105 z"
         style="fill:#f9f9f9;fill-opacity:0;stroke:#000000;stroke-width:0.53120804;stroke-miterlimit:10.80000019;stroke-opacity:1;stroke-dasharray:none;stroke-dashoffset:0" />
      <path
         transform="translate(294.81154,501.63801)"
         inkscape:connector-curvature="0"
         id="path3856"
         d="M 1.801656,14.868812 C 1.8031599,8.8110993 1.8685259,3.7537673 1.9469138,3.6302959 2.0502841,3.4674741 4.5146025,4.7956407 10.917394,8.4650168 20.032161,13.6886 21.078675,14.31047 21.082425,14.505382 21.085511,14.665731 9.6922359,21.418664 3.7185644,24.797154 l -1.9196428,1.08568 0.00273,-11.014022 z"
         style="fill:#f9f9f9;fill-opacity:0;stroke:#000000;stroke-width:0.53120804;stroke-miterlimit:10.80000019;stroke-opacity:1;stroke-dasharray:none;stroke-dashoffset:0" />
      <path
         transform="translate(294.81154,501.63801)"
         inkscape:connector-curvature="0"
         id="path3858"
         d="M 2.1717083,15.511161 C 2.1803124,10.180514 2.2405803,5.4351969 2.3056369,4.9660125 L 2.4239216,4.1129499 7.602493,7.0353547 c 4.150996,2.3425166 11.17075,6.3882323 12.587798,7.2547623 0.146504,0.08959 0.226861,0.197807 0.178572,0.240488 C 19.986054,14.86896 4.2914571,24.10233 2.7364216,24.904039 l -0.5803572,0.299208 0.015644,-9.692086 z"
         style="fill:#f9f9f9;fill-opacity:0;stroke:#000000;stroke-width:0.53120804;stroke-miterlimit:10.80000019;stroke-opacity:1;stroke-dasharray:none;stroke-dashoffset:0" />
      <path
         transform="translate(294.81154,501.63801)"
         inkscape:connector-curvature="0"
         id="path3860"
         d="m 2.5132073,18.099039 c 0,-3.530429 0.052488,-7.986195 0.1166405,-9.9017027 L 2.7464884,4.7145943 6.0755382,6.6061204 C 13.307619,10.715301 19.65148,14.394971 19.64998,14.479789 19.647568,14.616144 3.4151276,24.1719 2.7567375,24.424548 2.5538615,24.502398 2.5132073,23.446436 2.5132073,18.099039 z"
         style="fill:#f9f9f9;fill-opacity:0;stroke:#000000;stroke-width:0.53120804;stroke-miterlimit:10.80000019;stroke-opacity:1;stroke-dasharray:none;stroke-dashoffset:0" />
      <path
         transform="translate(294.81154,501.63801)"
         inkscape:connector-curvature="0"
         id="path3862"
         d="m 2.8934039,17.203004 c 0.01268,-3.609375 0.072947,-7.7523516 0.1339285,-9.2066141 L 3.1382073,5.3522762 9.5193542,9.0117149 c 7.2768368,4.1730961 9.2438528,5.3363981 9.2438528,5.4668571 0,0.195835 -15.4193369,9.286932 -15.7514909,9.286932 -0.077751,0 -0.1309918,-2.953125 -0.1183122,-6.5625 z"
         style="fill:#f9f9f9;fill-opacity:0;stroke:#000000;stroke-width:0.53120804;stroke-miterlimit:10.80000019;stroke-opacity:1;stroke-dasharray:none;stroke-dashoffset:0" />
      <path
         transform="translate(294.81154,501.63801)"
         inkscape:connector-curvature="0"
         id="path3864"
         d="M 3.3358838,22.768756 C 3.2054945,22.428967 3.2350746,14.750966 3.3864404,9.6459511 l 0.1089097,-3.673124 6.5178569,3.7627624 c 3.584822,2.0695195 6.865718,3.9735975 7.290881,4.2312855 l 0.773023,0.468522 -0.505166,0.353734 c -1.254735,0.878608 -13.8374223,8.262087 -14.0799813,8.262087 -0.026229,0 -0.096465,-0.127108 -0.1560799,-0.282462 z"
         style="fill:#f9f9f9;fill-opacity:0;stroke:#000000;stroke-width:0.53120804;stroke-miterlimit:10.80000019;stroke-opacity:1;stroke-dasharray:none;stroke-dashoffset:0" />
      <path
         transform="translate(294.81154,501.63801)"
         inkscape:connector-curvature="0"
         id="path3866"
         d="m 3.6084644,18.720861 c 0.013106,-2.087054 0.073374,-5.665574 0.1339285,-7.952267 L 3.852493,6.6109702 10.585182,10.500737 c 5.064597,2.926038 6.679462,3.938976 6.517857,4.088385 -0.41495,0.383634 -13.1998142,7.926382 -13.4351188,7.926382 -0.045806,0 -0.072562,-1.70759 -0.059456,-3.794643 z"
         style="fill:#f9f9f9;fill-opacity:0;stroke:#000000;stroke-width:0.53120804;stroke-miterlimit:10.80000019;stroke-opacity:1;stroke-dasharray:none;stroke-dashoffset:0" />
      <path
         transform="translate(294.81154,501.63801)"
         inkscape:connector-curvature="0"
         id="path3868"
         d="M 4.0022688,16.414987 C 4.0672136,13.45256 4.1203501,10.164639 4.1203501,9.1084956 l 0,-1.9202602 3.7053572,2.1456123 c 4.8261077,2.7945903 8.4038767,4.9470703 8.5110417,5.1204673 0.107802,0.174428 -11.9073836,7.346903 -12.3073845,7.346903 -0.079847,0 -0.09204,-2.423804 -0.027096,-5.386231 z"
         style="fill:#f9f9f9;fill-opacity:0;stroke:#000000;stroke-width:0.53120804;stroke-miterlimit:10.80000019;stroke-opacity:1;stroke-dasharray:none;stroke-dashoffset:0" />
      <path
         transform="translate(294.81154,501.63801)"
         inkscape:connector-curvature="0"
         id="path3870"
         d="m 4.2989216,19.406945 c 0,-1.00838 0.053091,-4.016184 0.1179807,-6.68401 L 4.5348831,7.872343 5.3544023,8.3420244 c 2.2272386,1.276471 9.6125247,5.6567436 9.9161497,5.8813476 0.343126,0.253825 0.343126,0.25906 0,0.517811 -0.417091,0.314527 -8.9205829,5.387581 -10.1234162,6.039476 l -0.8482142,0.459703 0,-1.833417 z"
         style="fill:#f9f9f9;fill-opacity:0;stroke:#000000;stroke-width:0.53120804;stroke-miterlimit:10.80000019;stroke-opacity:1;stroke-dasharray:none;stroke-dashoffset:0" />
      <path
         transform="translate(294.81154,501.63801)"
         inkscape:connector-curvature="0"
         id="path3872"
         d="m 4.7389552,14.636696 c 0.072312,-3.278263 0.1571281,-5.987488 0.1884812,-6.0205002 0.0747,-0.078653 9.9038036,5.7453532 9.9057256,5.8694072 0.0013,0.08553 -9.6392857,5.881256 -10.053515,6.04395 -0.1100111,0.04321 -0.1247017,-2.084246 -0.040692,-5.892857 l 0,0 z"
         style="fill:#f9f9f9;fill-opacity:0;stroke:#000000;stroke-width:0.53120804;stroke-miterlimit:10.80000019;stroke-opacity:1;stroke-dasharray:none;stroke-dashoffset:0" />
      <path
         transform="translate(294.81154,501.63801)"
         inkscape:connector-curvature="0"
         id="path3874"
         d="M 5.0961555,14.613718 C 5.1681171,11.74095 5.2523076,9.3639636 5.2832456,9.3315257 5.4145569,9.1938483 13.941779,14.288112 13.941779,14.504236 c 0,0.136303 -8.6079928,5.332696 -8.8337827,5.332696 -0.078474,0 -0.083802,-2.350446 -0.011841,-5.223214 z"
         style="fill:#f9f9f9;fill-opacity:0;stroke:#000000;stroke-width:0.53120804;stroke-miterlimit:10.80000019;stroke-opacity:1;stroke-dasharray:none;stroke-dashoffset:0" />
      <path
         transform="translate(294.81154,501.63801)"
         inkscape:connector-curvature="0"
         id="path3876"
         d="m 5.4518635,14.642413 c 0.072322,-2.495693 0.1564575,-4.563638 0.1869674,-4.595434 0.1225849,-0.1277498 6.0524571,3.307214 7.0529481,4.085522 l 0.446428,0.347288 -0.446428,0.34822 c -0.554124,0.432224 -6.5755003,4.046608 -7.0355243,4.223136 -0.3254586,0.12489 -0.3318038,-0.01198 -0.2043912,-4.408732 z"
         style="fill:#f9f9f9;fill-opacity:0;stroke:#000000;stroke-width:0.53120804;stroke-miterlimit:10.80000019;stroke-opacity:1;stroke-dasharray:none;stroke-dashoffset:0" />
      <path
         transform="translate(294.81154,501.63801)"
         inkscape:connector-curvature="0"
         id="path3878"
         d="m 5.7517053,16.661682 c 0.013317,-1.052719 0.073585,-2.854977 0.1339286,-4.005017 l 0.1097162,-2.090981 1.8675722,1.068907 c 2.7272497,1.560946 4.4717137,2.670643 4.4717137,2.84457 0,0.141121 -2.8630244,1.94222 -5.4910716,3.454378 L 5.727493,18.575718 5.751705,16.661682 z"
         style="fill:#f9f9f9;fill-opacity:0;stroke:#000000;stroke-width:0.53120804;stroke-miterlimit:10.80000019;stroke-opacity:1;stroke-dasharray:none;stroke-dashoffset:0" />
      <path
         transform="translate(294.81154,501.63801)"
         inkscape:connector-curvature="0"
         id="path3880"
         d="m 6.173236,14.613718 c 0.071337,-1.792411 0.1592138,-3.290683 0.1952829,-3.329494 0.092396,-0.09942 5.2518311,3.006018 5.2518311,3.16105 0,0.14759 -0.06777,0.192315 -3.0830761,2.034626 -1.2537277,0.76601 -2.3277079,1.392747 -2.3866227,1.392747 -0.058915,0 -0.048752,-1.466518 0.022585,-3.258929 z"
         style="fill:#f9f9f9;fill-opacity:0;stroke:#000000;stroke-width:0.53120804;stroke-miterlimit:10.80000019;stroke-opacity:1;stroke-dasharray:none;stroke-dashoffset:0" />
      <path
         transform="translate(294.81154,501.63801)"
         inkscape:connector-curvature="0"
         id="path3882"
         d="m 6.4606872,16.042289 c 0.0104,-0.613839 0.070667,-1.815258 0.1339285,-2.66982 l 0.1150201,-1.553749 2.0527088,1.238661 c 1.1289898,0.681263 2.0742444,1.303267 2.1005654,1.382231 0.04412,0.132368 -4.0547246,2.718749 -4.308622,2.718749 -0.06188,0 -0.1040005,-0.502232 -0.093601,-1.116072 z"
         style="fill:#f9f9f9;fill-opacity:0;stroke:#000000;stroke-width:0.53120804;stroke-miterlimit:10.80000019;stroke-opacity:1;stroke-dasharray:none;stroke-dashoffset:0" />
      <path
         transform="translate(294.81154,501.63801)"
         inkscape:connector-curvature="0"
         id="path3884"
         d="m 6.8867864,14.641465 c 0.071788,-1.120172 0.1543776,-2.062792 0.1835321,-2.094711 0.029154,-0.03192 0.7487196,0.383355 1.5990338,0.922833 l 1.5460257,0.980869 -1.0385854,0.695786 c -0.5712219,0.382682 -1.3495229,0.883911 -1.7295577,1.113842 l -0.6909725,0.418056 0.130524,-2.036675 z"
         style="fill:#f9f9f9;fill-opacity:0;stroke:#000000;stroke-width:0.53120804;stroke-miterlimit:10.80000019;stroke-opacity:1;stroke-dasharray:none;stroke-dashoffset:0" />
      <path
         transform="translate(294.81154,501.63801)"
         inkscape:connector-curvature="0"
         id="path3886"
         d="m 7.2189246,14.970861 c 0.061934,-0.515625 0.1133054,-1.118304 0.1141591,-1.339286 0.00201,-0.521529 0.086764,-0.507435 1.2304322,0.20462 l 0.961023,0.598339 -1.0851534,0.736913 c -0.5968344,0.405303 -1.1409342,0.736914 -1.2091106,0.736914 -0.068177,0 -0.073284,-0.421875 -0.01135,-0.9375 z"
         style="fill:#f9f9f9;fill-opacity:0;stroke:#000000;stroke-width:0.53120804;stroke-miterlimit:10.80000019;stroke-opacity:1;stroke-dasharray:none;stroke-dashoffset:0" />
      <path
         transform="translate(294.81154,501.63801)"
         inkscape:connector-curvature="0"
         id="path3888"
         d="m 7.5792276,14.792289 c 0.059221,-0.220982 0.1087717,-0.546953 0.1101128,-0.724381 0.00235,-0.311042 0.021987,-0.311048 0.5482547,-1.74e-4 l 0.5458164,0.322422 -0.5011735,0.401072 c -0.635802,0.508812 -0.8391645,0.509119 -0.7030104,0.0011 z"
         style="fill:#f9f9f9;fill-opacity:0;stroke:#000000;stroke-width:0.53120804;stroke-miterlimit:10.80000019;stroke-opacity:1;stroke-dasharray:none;stroke-dashoffset:0" />
      <path
         transform="translate(294.81154,501.63801)"
         inkscape:connector-curvature="0"
         id="path3896"
         d="m 0.01320726,14.503154 0,-13.9519361 0.38712988,0 c 0.38417116,0 24.41315086,13.7304851 24.42704886,13.9579471 0.004,0.06526 -0.334268,0.312052 -0.751679,0.548418 -0.41741,0.236366 -5.730275,3.303367 -11.806365,6.81556 -6.1372783,3.547561 -11.31604634,6.429391 -11.65178565,6.483875 l -0.60434909,0.09807 0,-13.951935 z M 1.4723841,26.086932 c -0.037465,-0.392857 -0.099856,-0.714285 -0.1386475,-0.714285 -0.038791,0 -0.070529,0.321428 -0.070529,0.714285 0,0.392857 0.062391,0.714286 0.1386474,0.714286 0.076256,0 0.1079944,-0.321429 0.070529,-0.714286 l 0,0 z m 1.1083903,-1.741071 c -0.1681873,-0.70107 -0.2461386,-0.724632 -0.2461386,-0.07441 0,0.311013 0.081888,0.565477 0.1819736,0.565477 0.1080288,0 0.1341022,-0.199546 0.064165,-0.491071 z m 0.2340982,-1.428572 c -0.044916,-0.171875 -0.081665,-0.03125 -0.081665,0.3125 0,0.34375 0.036749,0.484375 0.081665,0.3125 0.044916,-0.171875 0.044916,-0.453125 0,-0.625 z m 1.484049,0.38922 c 0,-0.04911 -0.1607143,-0.0033 -0.3571429,0.101852 -0.1964286,0.105125 -0.3571429,0.231316 -0.3571429,0.280423 0,0.04911 0.1607143,0.0033 0.3571429,-0.101852 0.1964286,-0.105125 0.3571429,-0.231316 0.3571429,-0.280423 z m 0.3571428,-1.607143 c 0,-0.04911 -0.1607143,-0.0033 -0.3571428,0.101852 -0.1964286,0.105125 -0.3571429,0.231316 -0.3571429,0.280423 0,0.04911 0.1607143,0.0033 0.3571429,-0.101852 0.1964285,-0.105125 0.3571428,-0.231316 0.3571428,-0.280423 z m -0.054823,-1.45725 c -0.045276,-0.173744 -0.085297,-0.07483 -0.088936,0.219816 -0.00364,0.294643 0.033404,0.436797 0.082319,0.315898 0.048915,-0.120898 0.051892,-0.361969 0.00662,-0.535714 l 7e-7,0 z M 5.727493,19.73508 c 0,-0.04911 -0.1607143,-0.0033 -0.3571429,0.101852 -0.1964285,0.105125 -0.3571428,0.231316 -0.3571428,0.280423 0,0.04911 0.1607143,0.0033 0.3571428,-0.101851 C 5.5667787,19.910379 5.727493,19.784188 5.727493,19.73508 z M 5.5489216,19.311757 c 0,-0.09242 -0.080357,-0.217696 -0.1785715,-0.278396 -0.098214,-0.0607 -0.1785714,0.01491 -0.1785714,0.168032 0,0.153118 0.080357,0.278396 0.1785714,0.278396 0.098214,0 0.1785715,-0.07561 0.1785715,-0.168032 z M 9.477493,18.48508 c 0,-0.04911 -0.1607143,-0.0033 -0.3571429,0.101852 -0.1964285,0.105125 -0.3571428,0.231316 -0.3571428,0.280423 0,0.04911 0.1607143,0.0033 0.3571428,-0.101851 C 9.3167787,18.660379 9.477493,18.534188 9.477493,18.48508 z m 0.892857,-0.535713 c 0,-0.04911 -0.160714,-0.0033 -0.357143,0.101851 -0.1964283,0.105125 -0.3571426,0.231316 -0.3571426,0.280423 0,0.04911 0.1607143,0.0033 0.3571426,-0.101852 0.196429,-0.105125 0.357143,-0.231315 0.357143,-0.280422 z m 0.892857,-0.535715 c 0,-0.04911 -0.160714,-0.0033 -0.357143,0.101852 -0.196428,0.105125 -0.357142,0.231315 -0.357142,0.280423 0,0.04911 0.160714,0.0033 0.357142,-0.101852 0.196429,-0.105125 0.357143,-0.231316 0.357143,-0.280423 z m -4.6428569,0.02311 c 0,-0.04331 -0.080357,-0.128411 -0.1785714,-0.18911 -0.098214,-0.0607 -0.1785714,-0.02526 -0.1785714,0.07875 0,0.104011 0.080357,0.189111 0.1785714,0.189111 0.098214,0 0.1785714,-0.03544 0.1785714,-0.07875 z m 5.5357139,-0.558819 c 0,-0.04911 -0.160714,-0.0033 -0.357142,0.101851 -0.196429,0.105126 -0.357143,0.231316 -0.357143,0.280423 0,0.04911 0.160714,0.0033 0.357143,-0.101851 0.196428,-0.105126 0.357142,-0.231316 0.357142,-0.280423 z m 0.892858,-0.535714 c 0,-0.04911 -0.160715,-0.0033 -0.357143,0.101851 -0.196429,0.105125 -0.357143,0.231316 -0.357143,0.280423 0,0.04911 0.160714,0.0033 0.357143,-0.101851 0.196428,-0.105126 0.357143,-0.231316 0.357143,-0.280423 z m -5.6433944,-0.22553 c 0.050583,-0.08184 -0.025031,-0.148809 -0.1680326,-0.148809 -0.1430011,0 -0.260002,0.06696 -0.260002,0.148809 0,0.08185 0.075615,0.14881 0.1680327,0.14881 0.092418,0 0.2094189,-0.06696 0.2600019,-0.14881 z m 15.5290994,-1.299488 0.510705,-0.303835 -0.398326,-0.213178 c -0.257568,-0.137847 -0.356006,-0.144703 -0.278567,-0.0194 0.06782,0.109732 -0.241698,0.446622 -0.71363,0.776744 -1.640045,1.147235 -1.293268,1.052509 0.879818,-0.240329 l 0,0 z M 7.7626705,15.402408 c 0.050583,-0.08184 -0.025031,-0.148809 -0.1680327,-0.148809 -0.1430011,0 -0.2600019,0.06696 -0.2600019,0.148809 0,0.08185 0.075615,0.14881 0.1680326,0.14881 0.092418,0 0.209419,-0.06696 0.260002,-0.14881 z m 4.9291085,-0.93581 c 0,-0.07937 -0.07944,-0.193397 -0.176526,-0.253402 -0.101225,-0.06256 -0.131162,0.0091 -0.07018,0.168033 0.05849,0.152423 0.03748,0.277531 -0.04669,0.278019 -0.08417,4.88e-4 -0.394105,0.205499 -0.688748,0.455581 -0.535301,0.454343 -0.535129,0.454324 0.223214,-0.02462 0.417411,-0.263621 0.758929,-0.544247 0.758929,-0.623614 z m 4.008928,0.163185 c 0.0933,-0.0825 0.11167,-0.149994 0.04081,-0.149994 -0.163299,0 -1.549743,0.912912 -1.549743,1.020437 0,0.08621 1.228405,-0.622411 1.508928,-0.870443 z m 4.741072,0.462441 c 0,-0.04911 -0.160715,-0.0033 -0.357143,0.101851 -0.196429,0.105125 -0.357143,0.231316 -0.357143,0.280423 0,0.04911 0.160714,0.0033 0.357143,-0.101851 0.196428,-0.105126 0.357143,-0.231316 0.357143,-0.280423 z m -7.678572,-0.178572 c 0,-0.04911 -0.160714,-0.0033 -0.357143,0.101852 -0.196428,0.105125 -0.357142,0.231315 -0.357142,0.280423 0,0.04911 0.160714,0.0033 0.357142,-0.101852 0.196429,-0.105125 0.357143,-0.231316 0.357143,-0.280423 z M 9.0186916,14.497178 c -0.046979,-0.04698 -0.2241281,0.05941 -0.3936647,0.236411 -0.2945155,0.307489 -0.2907102,0.311294 0.085417,0.08542 0.2165153,-0.130026 0.3552271,-0.274848 0.3082482,-0.321827 l 0,0 z m 2.2076724,-0.03863 c -0.0322,-0.0966 -0.338422,-0.340955 -0.680494,-0.54301 L 9.9239216,13.548161 10.37035,13.920719 c 0.245536,0.204907 0.519151,0.374344 0.608034,0.376528 0.08888,0.0022 0.0085,0.176378 -0.178572,0.387098 -0.338911,0.381701 -0.338641,0.38232 0.07246,0.166481 0.226951,-0.119155 0.386292,-0.295682 0.354092,-0.392281 z m 3.965415,0.02124 c 0,-0.0913 -0.180804,-0.253623 -0.401786,-0.360711 -0.385826,-0.186971 -0.388017,-0.183674 -0.05516,0.083 0.343126,0.274901 0.343126,0.280516 0,0.555417 -0.332862,0.266677 -0.330671,0.269974 0.05516,0.083 0.220982,-0.107087 0.401786,-0.269407 0.401786,-0.360711 z m 3.928571,0.0043 c 0,-0.08896 -0.09277,-0.219087 -0.206162,-0.289165 -0.131741,-0.08142 -0.157516,-0.04871 -0.0714,0.09063 0.07861,0.127198 -0.0029,0.328798 -0.195623,0.48387 -0.308543,0.248256 -0.303823,0.252957 0.0714,0.07112 0.220983,-0.107088 0.401786,-0.267493 0.401786,-0.356455 z M 8.2040785,14.597287 c 0.1093881,-0.131804 0.1460131,-0.292519 0.081389,-0.357143 -0.2089429,-0.208942 -0.3713508,-0.125576 -0.4668583,0.239645 -0.1069987,0.409164 0.092851,0.470083 0.3854693,0.117499 l 0,-1e-6 z m 5.3805575,-0.01964 c 0,-0.02338 -0.179419,-0.195583 -0.398709,-0.38268 -0.303598,-0.259029 -0.342528,-0.267497 -0.163198,-0.0355 0.129531,0.167573 0.18424,0.387635 0.121577,0.489026 -0.06797,0.109972 -0.0021,0.141443 0.163198,0.078 0.152423,-0.05849 0.277132,-0.125472 0.277132,-0.14885 z m 0.714286,-0.102113 c 0,-0.08896 -0.180804,-0.249367 -0.401786,-0.356455 -0.375227,-0.181835 -0.379947,-0.177134 -0.0714,0.07112 0.192731,0.155073 0.274236,0.356673 0.195623,0.48387 -0.08611,0.139334 -0.06034,0.172049 0.0714,0.09063 0.11339,-0.07008 0.206163,-0.200203 0.206163,-0.289166 z m 3.392857,0.01803 c 0,-0.06962 -0.341518,-0.310098 -0.758929,-0.534393 l -0.758928,-0.407808 0.582069,0.478494 c 0.320138,0.263172 0.536946,0.551503 0.481796,0.640738 -0.05515,0.08923 0.02444,0.114388 0.17686,0.0559 0.152423,-0.05849 0.277132,-0.163308 0.277132,-0.232929 z m 3.645409,-0.189798 c -0.115647,-0.115646 -0.176022,-0.05527 -0.176022,0.17602 0,0.231293 0.06037,0.291667 0.176022,0.176021 0.115644,-0.115647 0.115644,-0.236395 0,-0.352041 z m -9.516108,-0.05017 c -0.17636,-0.175048 -0.196871,-0.154536 -0.09996,0.09996 0.06706,0.176111 0.166909,0.275218 0.221889,0.220238 0.05498,-0.05498 1.13e-4,-0.19907 -0.121926,-0.320201 l 0,0 z m 3.928572,0 c -0.17636,-0.175048 -0.196872,-0.154536 -0.09996,0.09996 0.06706,0.176111 0.166909,0.275218 0.221889,0.220238 0.05498,-0.05498 1.14e-4,-0.19907 -0.121925,-0.320201 l 0,0 z m 0.692127,-0.03538 c 0,-0.04565 -0.180804,-0.17062 -0.401786,-0.277708 -0.385826,-0.186972 -0.388017,-0.183674 -0.05515,0.083 0.364332,0.29189 0.456941,0.331352 0.456941,0.194705 z m -2.142857,-0.357143 c 0,-0.04565 -0.180804,-0.17062 -0.401786,-0.277708 -0.385826,-0.186971 -0.388017,-0.183674 -0.05515,0.083 0.364332,0.291891 0.456941,0.331352 0.456941,0.194705 z M 7.4239216,13.051218 c 0.0607,-0.09821 0.025264,-0.178572 -0.078747,-0.178572 -0.1040105,0 -0.1891102,0.08036 -0.1891102,0.178572 0,0.09821 0.035436,0.178571 0.078747,0.178571 0.043311,0 0.1284103,-0.08036 0.1891102,-0.178571 z m 6.5178574,0.09557 c 0,-0.04565 -0.180804,-0.170621 -0.401786,-0.277709 -0.385826,-0.186971 -0.388017,-0.183674 -0.05516,0.083 0.364332,0.291891 0.456941,0.331352 0.456941,0.194706 z M 2.8196812,11.131575 c -0.040915,-0.270089 -0.074391,-0.04911 -0.074391,0.491071 0,0.540179 0.033476,0.761161 0.074391,0.491072 0.040915,-0.270089 0.040915,-0.712054 0,-0.982143 z m 4.407275,1.175595 c -0.050583,-0.08184 -0.1675839,-0.148809 -0.260002,-0.148809 -0.092418,0 -0.1680326,0.06696 -0.1680326,0.148809 0,0.08185 0.1170009,0.14881 0.2600019,0.14881 0.1430013,0 0.2186159,-0.06696 0.1680327,-0.14881 z M 6.6793983,11.276781 c 0.3747258,0.180888 0.376057,0.177924 0.04075,-0.09071 -0.4514885,-0.361717 -0.6388292,-0.351228 -0.6214148,0.03479 0.00831,0.184301 0.050852,0.221515 0.1036913,0.09071 0.066293,-0.164107 0.1903389,-0.173156 0.4769735,-0.03479 l 0,0 z m 0.6552376,-0.633269 c 0,-0.08916 -1.6999022,-0.9851512 -1.8690636,-0.9851512 -0.052372,0 -0.095222,0.0851 -0.095222,0.1891102 0,0.1040105 0.060268,0.1521417 0.1339286,0.1069584 0.073661,-0.045184 0.4955357,0.1071566 0.9375,0.3385346 0.9035809,0.473044 0.8928572,0.468834 0.8928572,0.350548 z M 2.1096498,6.6738095 C 2.0741048,6.1054913 2.0446938,6.5244322 2.0442908,7.6047893 2.04388,8.6851465 2.0729698,9.1501342 2.1089178,8.6380952 2.1448658,8.1260563 2.1451948,7.2421277 2.1096499,6.6738095 l 4e-7,0 z m 3.7964146,2.722977 c 0,-0.045652 -0.1808036,-0.1706204 -0.4017857,-0.2777082 C 5.1184526,8.9321068 5.1162617,8.935404 5.4491233,9.2020811 5.8134558,9.4939718 5.9060644,9.5334329 5.9060644,9.3967865 z M 6.4417787,9.2182151 c 0,-0.045652 -0.1808036,-0.1706204 -0.4017857,-0.2777083 C 5.6541669,8.7535354 5.651976,8.7568326 5.9848376,9.0235097 6.3491701,9.3154004 6.4417787,9.3548615 6.4417787,9.2182151 z M 5.2915769,8.4919674 C 4.8826526,8.1826724 4.6560644,8.1566206 4.6560644,8.4188995 c 0,0.1040106 0.064105,0.1494915 0.1424547,0.1010684 0.07835,-0.048423 0.2591535,-0.014218 0.4017857,0.076013 0.4093746,0.2589729 0.4739253,0.1854113 0.091272,-0.104013 l 0,0 z M 11.263207,7.9682151 c 0,-0.045652 -0.180803,-0.1706204 -0.401785,-0.2777083 -0.385826,-0.1869714 -0.388017,-0.1836742 -0.05516,0.083003 0.364333,0.2918907 0.456941,0.3313518 0.456941,0.1947054 z m -1.25,-0.7142858 c 0,-0.045652 -0.1808033,-0.1706203 -0.4017854,-0.2777082 C 9.2255955,6.7892497 9.2234046,6.7925468 9.5562662,7.059224 9.9205987,7.3511147 10.013207,7.3905758 10.013207,7.2539293 z M 8.7632073,6.5396436 c 0,-0.045652 -0.1808036,-0.1706203 -0.4017857,-0.2777082 C 7.9755955,6.074964 7.9734046,6.0782611 8.3062662,6.3449383 8.6705987,6.636829 8.7632073,6.6762901 8.7632073,6.5396436 z M 1.7484896,4.3483161 c -0.041045,-0.2714398 -0.075725,-0.091741 -0.077066,0.3993304 -0.00134,0.4910714 0.032242,0.7131584 0.074628,0.4935268 0.042386,-0.2196318 0.043483,-0.6214175 0.00244,-0.8928572 z M 5.727493,5.2896436 C 5.727493,5.243992 5.5466894,5.1190233 5.3257073,5.0119354 4.9398812,4.824964 4.9376903,4.8282611 5.2705519,5.0949383 5.6348844,5.386829 5.727493,5.4262901 5.727493,5.2896436 z M 4.3792787,4.5036763 C 4.0123626,4.1691133 1.7989216,3.0297165 1.7989216,3.1754049 c 0,0.085208 0.5825892,0.4489553 1.2946428,0.8083264 1.3727513,0.6928227 1.5570459,0.7673518 1.2857143,0.519945 z M 1.5009501,2.9172893 c 0.063477,-0.3334725 0.036406,-0.5803571 -0.063636,-0.5803571 -0.095759,0 -0.1741071,0.2946428 -0.1741071,0.654762 0,0.7653209 0.082835,0.7393966 0.2377428,-0.074405 z"
         style="fill:#f9f9f9;fill-opacity:0;stroke:#000000;stroke-width:0.53120804;stroke-miterlimit:10.80000019;stroke-opacity:1;stroke-dasharray:none;stroke-dashoffset:0" />
      <path
         transform="translate(294.81154,501.63801)"
         inkscape:connector-curvature="0"
         id="path3898"
         d="m 3.231393,23.312665 c 0,-0.03025 -0.00194,-0.07771 -0.00431,-0.105475 -0.00429,-0.0502 -0.00423,-0.05037 0.00986,-0.03075 0.030208,0.04204 0.077732,0.08867 0.1042214,0.102264 l 0.027703,0.01421 -0.050974,0.02573 c -0.028036,0.01415 -0.058968,0.03097 -0.068739,0.03737 l -0.017765,0.01164 0,-0.05499 z"
         style="fill:#f9f9f9;fill-opacity:0;stroke:#000000;stroke-width:0.0234763;stroke-miterlimit:10.80000019;stroke-opacity:1;stroke-dasharray:none;stroke-dashoffset:0" />
      <path
         transform="translate(294.81154,501.63801)"
         inkscape:connector-curvature="0"
         id="path3900"
         d="m 3.2472158,23.273113 3.92e-5,-0.06116 0.017717,0.02193 c 0.00974,0.01206 0.02813,0.03018 0.040857,0.04026 l 0.02314,0.01832 -0.035671,0.0209 c -0.019619,0.0115 -0.038023,0.02091 -0.040897,0.02091 -0.00287,0 -0.00521,-0.02752 -0.00519,-0.06116 z"
         style="fill:#f9f9f9;fill-opacity:0;stroke:#000000;stroke-width:0.0234763;stroke-miterlimit:10.80000019;stroke-opacity:1;stroke-dasharray:none;stroke-dashoffset:0" />
      <path
         transform="translate(294.81154,501.63801)"
         inkscape:connector-curvature="0"
         id="path3906"
         d="m 2.8568377,23.179981 0.7023717,0.181512 0,0 -0.3314563,-0.228863 -0.00789,0.07892"
         style="fill:none;stroke:#000000;stroke-width:1px;stroke-linecap:butt;stroke-linejoin:miter;stroke-opacity:1" />
      <path
         transform="translate(294.81154,501.63801)"
         inkscape:connector-curvature="0"
         id="path3908"
         d="M 3.574993,24.08754 2.6121914,24.040189"
         style="fill:none;stroke:#000000;stroke-width:1px;stroke-linecap:butt;stroke-linejoin:miter;stroke-opacity:1" />
      <path
         transform="translate(294.81154,501.63801)"
         inkscape:connector-curvature="0"
         id="path3910"
         d="M 4.695631,23.953379 7.9464286,12.406245"
         style="fill:none;stroke:#000000;stroke-width:1px;stroke-linecap:butt;stroke-linejoin:miter;stroke-opacity:1" />
      <path
         transform="translate(294.81154,501.63801)"
         inkscape:connector-curvature="0"
         id="path3912"
         d="m 20.267857,14.482138 c 0.92634,0 0.680804,-0.04464 0.680804,-0.04464"
         style="fill:none;stroke:#000000;stroke-width:1px;stroke-linecap:butt;stroke-linejoin:miter;stroke-opacity:1" />
    </g>
  </g>
</svg>
